<?xml version="1.0" encoding="utf-8"?>
<svg xmlns="http://www.w3.org/2000/svg" version="1.1" id="Layer_1" width="512px" height="512px"
	style="shape-rendering:geometricPrecision; text-rendering:geometricPrecision; image-rendering:optimizeQuality; fill-rule:evenodd; clip-rule:evenodd"
	xml:space="preserve">
	<g>
		<path style="opacity:0.994" fill="#fffefe"
			d="M 233.5,-0.5 C 248.167,-0.5 262.833,-0.5 277.5,-0.5C 377.769,12.0418 449.269,64.0418 492,155.5C 502.296,180.684 508.796,206.684 511.5,233.5C 511.5,248.167 511.5,262.833 511.5,277.5C 498.958,377.769 446.958,449.269 355.5,492C 330.316,502.296 304.316,508.796 277.5,511.5C 262.833,511.5 248.167,511.5 233.5,511.5C 133.231,498.958 61.7312,446.958 19,355.5C 8.70393,330.316 2.20393,304.316 -0.5,277.5C -0.5,262.833 -0.5,248.167 -0.5,233.5C 12.0418,133.231 64.0418,61.7312 155.5,19C 180.684,8.70393 206.684,2.20393 233.5,-0.5 Z" />
	</g>
	<g>
		<path style="opacity:1" fill="#ff6c02"
			d="M 160.5,350.5 C 161.167,360.167 161.833,369.833 162.5,379.5C 163.254,382.091 164.921,383.924 167.5,385C 210.5,385.667 253.5,385.667 296.5,385C 298.081,384.293 299.581,383.46 301,382.5C 302,348.5 303,314.5 304,280.5C 304.903,279.299 306.069,278.465 307.5,278C 327.833,277.667 348.167,277.333 368.5,277C 371.057,276.315 372.891,274.815 374,272.5C 374.5,227.501 374.667,182.501 374.5,137.5C 374.5,136.833 374.5,136.167 374.5,135.5C 385.246,126.257 395.58,116.424 405.5,106C 410.625,104.431 414.459,105.931 417,110.5C 417.995,212.914 417.662,315.248 416,417.5C 414.786,419.049 413.286,420.215 411.5,421C 309.833,421.667 208.167,421.667 106.5,421C 101.931,418.459 100.431,414.625 102,409.5C 121.702,389.965 141.202,370.299 160.5,350.5 Z" />
	</g>
	<g>
		<path style="opacity:1" fill="#ffd9be"
			d="M 97.5,136.5 C 189.665,135.501 281.998,135.167 374.5,135.5C 374.5,136.167 374.5,136.833 374.5,137.5C 374.167,137.5 373.833,137.5 373.5,137.5C 281.668,136.501 189.668,136.167 97.5,136.5 Z" />
	</g>
	<g>
		<path style="opacity:1" fill="#ff6c00"
			d="M 97.5,136.5 C 189.668,136.167 281.668,136.501 373.5,137.5C 303.167,207.167 233.167,277.167 163.5,347.5C 162.833,326.5 162.167,305.5 161.5,284.5C 161.201,281.358 159.534,279.191 156.5,278C 136.167,277.667 115.833,277.333 95.5,277C 93,275.833 91.1667,274 90,271.5C 89.3333,228.167 89.3333,184.833 90,141.5C 91.4103,138.211 93.9103,136.544 97.5,136.5 Z" />
	</g>
	<g>
		<path style="opacity:1" fill="#fffefd"
			d="M 373.5,137.5 C 373.833,137.5 374.167,137.5 374.5,137.5C 374.667,182.501 374.5,227.501 374,272.5C 372.891,274.815 371.057,276.315 368.5,277C 348.167,277.333 327.833,277.667 307.5,278C 306.069,278.465 304.903,279.299 304,280.5C 303,314.5 302,348.5 301,382.5C 299.581,383.46 298.081,384.293 296.5,385C 253.5,385.667 210.5,385.667 167.5,385C 164.921,383.924 163.254,382.091 162.5,379.5C 162.5,369.167 162.5,358.833 162.5,348.5C 163.167,348.5 163.5,348.167 163.5,347.5C 233.167,277.167 303.167,207.167 373.5,137.5 Z" />
	</g>
	<g>
		<path style="opacity:1" fill="#ff9140"
			d="M 161.5,284.5 C 162.167,305.5 162.833,326.5 163.5,347.5C 163.5,348.167 163.167,348.5 162.5,348.5C 162.167,348.5 161.833,348.5 161.5,348.5C 161.5,327.167 161.5,305.833 161.5,284.5 Z" />
	</g>
	<g>
		<path style="opacity:1" fill="#ffd8bb"
			d="M 161.5,348.5 C 161.833,348.5 162.167,348.5 162.5,348.5C 162.5,358.833 162.5,369.167 162.5,379.5C 161.833,369.833 161.167,360.167 160.5,350.5C 160.833,349.833 161.167,349.167 161.5,348.5 Z" />
	</g>
</svg>